<svg width="32" height="31" viewBox="0 0 32 31" fill="none" xmlns="http://www.w3.org/2000/svg">
<path d="M19.1538 29.1094H17.2856V30.2395H19.1538V29.1094Z" fill="#ADB6B1"/>
<path d="M31.5591 10.4575L17.4641 5.83691V29.8397C17.4668 30.014 17.5407 30.1804 17.67 30.3036C17.7993 30.4268 17.9739 30.4972 18.1568 30.4998H31.3073C31.491 30.4998 31.6672 30.4303 31.7971 30.3065C31.927 30.1827 32 30.0148 32 29.8397V11.0775C32.0011 10.9438 31.9595 10.8129 31.8808 10.7022C31.8021 10.5914 31.6899 10.5061 31.5591 10.4575ZM30.4152 11.7176V28.9096H18.4192V7.77714L30.4152 11.7176Z" fill="#ACB5B0"/>
<path d="M20.644 12.2577L28.6413 14.418H28.8407C29.0227 14.4244 29.2008 14.3661 29.3403 14.2545C29.4798 14.1429 29.5708 13.9858 29.5956 13.8139C29.6205 13.6419 29.5774 13.4673 29.4747 13.3239C29.3721 13.1805 29.2172 13.0785 29.0401 13.0378L21.0428 10.8876C20.8549 10.8372 20.6537 10.86 20.4834 10.9509C20.3132 11.0419 20.1878 11.1936 20.135 11.3726C20.0821 11.5517 20.106 11.7434 20.2014 11.9056C20.2969 12.0679 20.4561 12.1873 20.644 12.2377V12.2577Z" fill="#ACB5B0"/>
<path d="M29.0085 16.0681L21.0112 14.3179C20.8206 14.2773 20.6208 14.3096 20.455 14.4079C20.2869 14.5071 20.1663 14.6651 20.1191 14.848C20.0818 15.0297 20.1154 15.2182 20.2136 15.378C20.2653 15.4562 20.3327 15.5238 20.4119 15.577C20.4912 15.6302 20.5807 15.668 20.6754 15.6881L28.6727 17.4383C28.7281 17.4488 28.7852 17.4488 28.8406 17.4383C29.0073 17.4384 29.1693 17.3853 29.3005 17.2874C29.4318 17.1895 29.5249 17.0524 29.5648 16.8982C29.6028 16.7132 29.5692 16.5214 29.4703 16.3581C29.3619 16.2078 29.1962 16.1038 29.0085 16.0681Z" fill="#ACB5B0"/>
<path d="M20.6862 19.0784L28.7255 20.4586H28.8515C29.0245 20.4587 29.1921 20.4005 29.3246 20.2944C29.457 20.1883 29.546 20.041 29.5756 19.8785C29.5955 19.7873 29.5955 19.6932 29.5756 19.602C29.5558 19.5109 29.5165 19.4246 29.4602 19.3484C29.3449 19.2004 29.177 19.0973 28.9879 19.0584L20.9486 17.6882C20.8546 17.6683 20.7573 17.6677 20.6632 17.6867C20.569 17.7057 20.4802 17.7437 20.4028 17.7983C20.2382 17.9059 20.125 18.0713 20.088 18.2583C20.0699 18.3497 20.071 18.4436 20.0914 18.5345C20.1118 18.6254 20.1509 18.7116 20.2066 18.7879C20.2623 18.8642 20.3334 18.9292 20.4157 18.9791C20.4981 19.029 20.59 19.0628 20.6862 19.0784Z" fill="#ACB5B0"/>
<path d="M20.728 22.5293L28.7778 23.4694H28.8618C29.0429 23.4706 29.2181 23.4079 29.3537 23.2934C29.4893 23.179 29.5757 23.0208 29.5964 22.8494C29.6098 22.7577 29.6037 22.6644 29.5784 22.5751C29.5532 22.4858 29.5093 22.4022 29.4495 22.3293C29.3275 22.1823 29.1509 22.0856 28.9562 22.0593L20.9064 21.1191C20.7239 21.1185 20.5474 21.1817 20.4105 21.2968C20.2737 21.4119 20.1859 21.5709 20.1639 21.7436C20.1419 21.9163 20.1872 22.0907 20.2911 22.2337C20.3951 22.3767 20.5506 22.4783 20.728 22.5193V22.5293Z" fill="#ACB5B0"/>
<path d="M18.1252 0.626519C18.0378 0.563908 17.9355 0.522912 17.8275 0.507204C17.7194 0.491496 17.609 0.50157 17.506 0.536512L0.47229 6.11716C0.334799 6.15953 0.214974 6.24241 0.130095 6.35385C0.0452153 6.46529 -0.000339028 6.59954 1.89975e-06 6.73724V29.8099C0.00271148 29.9842 0.0765624 30.1506 0.205883 30.2738C0.335203 30.3971 0.509822 30.4674 0.692688 30.47H17.7264C17.9092 30.4674 18.0839 30.3971 18.2132 30.2738C18.3425 30.1506 18.4164 29.9842 18.4191 29.8099V1.13658C18.4167 1.03531 18.3888 0.936076 18.3376 0.847286C18.2865 0.758495 18.2136 0.682767 18.1252 0.626519ZM16.8133 2.42673V28.9298H1.64775V7.38731L16.8133 2.42673Z" fill="#0D7B3F"/>
<path d="M3.69436 10.7777C3.76748 10.7874 3.84165 10.7874 3.91476 10.7777L14.0111 8.05736C14.1793 8.01024 14.3273 7.9129 14.4331 7.77967C14.5389 7.64644 14.597 7.48435 14.5989 7.31727C14.6002 7.19814 14.5713 7.08046 14.5146 6.97425C14.458 6.86803 14.3753 6.77643 14.2735 6.7072C14.1751 6.63479 14.0602 6.58532 13.9381 6.56275C13.816 6.54017 13.6901 6.54511 13.5703 6.57718L3.47397 9.30751C3.30487 9.35318 3.15601 9.45015 3.04995 9.5837C2.94389 9.71725 2.88642 9.88011 2.88623 10.0476C2.88899 10.2501 2.97535 10.4434 3.12661 10.5857C3.27786 10.7279 3.48184 10.8077 3.69436 10.8077V10.7777Z" fill="#0D7B3F"/>
<path d="M3.69436 14.498H3.87278L13.9692 12.2777C14.1478 12.2392 14.3074 12.144 14.4218 12.0077C14.5362 11.8714 14.5986 11.7022 14.5989 11.5277C14.5971 11.413 14.5686 11.3002 14.5153 11.1974C14.462 11.0946 14.3852 11.0045 14.2907 10.9336C14.1962 10.8626 14.0862 10.8127 13.9688 10.7875C13.8515 10.7622 13.7297 10.7623 13.6123 10.7876L3.51594 12.9978C3.33732 13.0364 3.17773 13.1316 3.06332 13.2678C2.94891 13.4041 2.88647 13.5734 2.88623 13.7479C2.88623 13.9522 2.97138 14.148 3.12293 14.2925C3.27448 14.4369 3.48004 14.518 3.69436 14.518V14.498Z" fill="#0D7B3F"/>
<path d="M3.69436 18.2085H3.8308L13.9377 16.5183C14.123 16.4837 14.29 16.3891 14.4105 16.2506C14.531 16.1121 14.5975 15.9381 14.5989 15.7582C14.5993 15.6463 14.5738 15.5356 14.5242 15.4342C14.4746 15.3327 14.4021 15.2429 14.3119 15.1713C14.2216 15.0996 14.1159 15.0479 14.0022 15.0196C13.8886 14.9914 13.7697 14.9875 13.6543 15.0081L3.55792 16.6983C3.3707 16.7309 3.20123 16.8246 3.07864 16.9633C2.95606 17.102 2.88802 17.2771 2.88623 17.4584C2.88611 17.5714 2.91243 17.683 2.96326 17.7851C3.01409 17.8871 3.08817 17.9771 3.18009 18.0485C3.32829 18.1544 3.50911 18.2107 3.69436 18.2085Z" fill="#0D7B3F"/>
<path d="M3.69436 21.919H3.78882L13.8957 20.7388C14.0896 20.7147 14.2676 20.6243 14.3969 20.4845C14.5262 20.3448 14.598 20.1651 14.5989 19.9788C14.5974 19.8694 14.5724 19.7616 14.5255 19.6618C14.4785 19.562 14.4106 19.4725 14.326 19.3987C14.2398 19.3288 14.1393 19.2768 14.0309 19.2458C13.9225 19.2148 13.8086 19.2056 13.6963 19.2187L3.5999 20.3988C3.40413 20.4208 3.22353 20.5101 3.0921 20.6501C2.96066 20.7901 2.88744 20.9711 2.88623 21.1589C2.88771 21.2682 2.91269 21.3761 2.95962 21.4759C3.00656 21.5756 3.07445 21.6652 3.15911 21.739C3.30929 21.8579 3.49913 21.9217 3.69436 21.919Z" fill="#0D7B3F"/>
</svg>
