<svg width="214" height="64" viewBox="0 0 214 64" fill="none" xmlns="http://www.w3.org/2000/svg">
<g clip-path="url(#clip0_1464_1355)">
<path d="M104.288 52.4215C104.14 52.2753 103.94 52.1934 103.732 52.1934C103.525 52.1934 103.325 52.2753 103.177 52.4215C100.618 54.7298 97.2903 56.0016 93.8441 55.9889C84.2119 55.9889 80.7093 49.2813 80.6666 43.0223C80.6131 41.2387 80.9119 39.4621 81.5459 37.7943C82.1799 36.1264 83.1367 34.6 84.3614 33.3026C86.8854 31.0489 90.1347 29.7768 93.5176 29.718C96.9005 29.6592 100.192 30.8176 102.793 32.9822C102.941 33.1283 103.14 33.2102 103.348 33.2102C103.556 33.2102 103.755 33.1283 103.903 32.9822L108.175 28.9021C108.254 28.8263 108.318 28.7351 108.361 28.6342C108.404 28.5332 108.426 28.4245 108.426 28.3147C108.426 28.2048 108.404 28.0961 108.361 27.9951C108.318 27.8942 108.254 27.803 108.175 27.7272C104.296 24.0983 99.1978 22.0556 93.8868 22.0022C91.0906 21.9001 88.3022 22.3598 85.6867 23.3541C83.0712 24.3484 80.6815 25.8572 78.659 27.7913C74.7547 31.8869 72.6347 37.3647 72.7644 43.0223C72.7644 52.5069 78.3814 63.5937 93.8868 63.5937C96.6063 63.6894 99.3178 63.246 101.865 62.2891C104.413 61.3323 106.746 59.8808 108.73 58.0182C108.878 57.8667 108.96 57.6636 108.96 57.4522C108.96 57.2407 108.878 57.0376 108.73 56.8861L104.288 52.4215Z" fill="#4B4E4C"/>
<path d="M135.042 33.9229C134.836 33.9228 134.638 34.0031 134.491 34.1468C134.343 34.2904 134.257 34.486 134.252 34.6919L134.102 37.5117C133.053 36.2797 131.741 35.2986 130.262 34.6406C128.784 33.9826 127.177 33.6643 125.559 33.7092H125.431C123.466 33.5846 121.496 33.883 119.656 34.5841C117.816 35.2853 116.147 36.3731 114.762 37.774C113.378 39.175 112.31 40.8566 111.63 42.7054C110.951 44.5543 110.675 46.5273 110.823 48.4916C110.722 50.527 111.03 52.5618 111.727 54.4767C112.423 56.3916 113.496 58.1479 114.881 59.6425C116.266 60.9455 117.898 61.9587 119.681 62.6227C121.463 63.2866 123.36 63.5879 125.26 63.509H125.41C127.078 63.5045 128.725 63.1306 130.231 62.4141C131.738 61.6975 133.067 60.6562 134.124 59.3648L134.359 62.8468C134.37 63.0489 134.458 63.2391 134.605 63.3783C134.752 63.5174 134.946 63.5947 135.149 63.5944H140.595C140.81 63.5944 141.017 63.5089 141.169 63.3567C141.321 63.2044 141.406 62.998 141.406 62.7827V34.7346C141.406 34.5193 141.321 34.3129 141.169 34.1606C141.017 34.0084 140.81 33.9229 140.595 33.9229H135.042ZM133.931 48.5344C133.987 49.594 133.826 50.6539 133.459 51.6494C133.092 52.645 132.525 53.5553 131.795 54.325C131.065 55.0947 130.186 55.7076 129.211 56.1265C128.236 56.5453 127.186 56.7613 126.125 56.7613C125.064 56.7613 124.015 56.5453 123.04 56.1265C122.065 55.7076 121.186 55.0947 120.455 54.325C119.725 53.5553 119.159 52.645 118.792 51.6494C118.425 50.6539 118.264 49.594 118.319 48.5344C118.246 47.4752 118.397 46.4125 118.764 45.4161C119.13 44.4197 119.704 43.5123 120.446 42.7535C121.189 41.9948 122.083 41.4019 123.071 41.0139C124.059 40.6258 125.118 40.4515 126.179 40.5023C127.227 40.48 128.268 40.6747 129.237 41.0741C130.206 41.4736 131.082 42.0691 131.81 42.8234C132.538 43.5777 133.103 44.4744 133.468 45.4572C133.833 46.4399 133.991 47.4876 133.931 48.5344Z" fill="#4B4E4C"/>
<path d="M210.433 37.8106C208.998 36.4026 207.294 35.2985 205.422 34.5644C203.551 33.8303 201.55 33.4813 199.541 33.5382C190.571 33.5382 184.591 39.4768 184.591 48.3206C184.591 57.6343 190.549 63.402 200.118 63.402C204.442 63.5379 208.655 62.0086 211.885 59.1297C211.962 59.0542 212.022 58.9643 212.063 58.8653C212.105 58.7664 212.126 58.6602 212.126 58.5529C212.126 58.4456 212.105 58.3394 212.063 58.2404C212.022 58.1414 211.962 58.0516 211.885 57.9761L208.148 54.3019C208.002 54.1683 207.812 54.0942 207.614 54.0942C207.416 54.0942 207.226 54.1683 207.08 54.3019C205.118 55.8113 202.699 56.6029 200.224 56.5449C195.953 56.5449 192.984 54.5582 192.365 51.3113H213.146C213.347 51.3124 213.541 51.2387 213.691 51.1045C213.841 50.9703 213.936 50.7851 213.957 50.5849C214.128 48.4701 214.427 41.8052 210.433 37.8106ZM192.472 45.0736C192.995 43.5893 193.997 42.3206 195.318 41.4664C196.64 40.6121 198.208 40.2204 199.776 40.3526C203.577 40.3526 206.034 42.0616 206.567 45.0736H192.472Z" fill="#4B4E4C"/>
<path d="M163.383 33.9224V40.331C163.383 40.4404 163.361 40.5487 163.317 40.649C163.274 40.7493 163.21 40.8395 163.129 40.9138C163.049 40.9881 162.954 41.0449 162.851 41.0806C162.747 41.1163 162.638 41.1302 162.529 41.1213C160.713 40.9932 156.677 41.1213 154.904 44.112C154.206 45.7792 153.899 47.5841 154.007 49.3884V62.6968C154.007 62.9121 153.922 63.1185 153.77 63.2708C153.617 63.423 153.411 63.5085 153.196 63.5085H147.002C146.787 63.5085 146.58 63.423 146.428 63.2708C146.276 63.1185 146.19 62.9121 146.19 62.6968V34.6487C146.19 34.4334 146.276 34.227 146.428 34.0747C146.58 33.9225 146.787 33.837 147.002 33.837H152.768C152.984 33.837 153.19 33.9225 153.342 34.0747C153.495 34.227 153.58 34.4334 153.58 34.6487V38.9211C154.401 37.4197 155.453 36.0572 156.698 34.8837C157.502 34.1827 158.444 33.6573 159.462 33.341C160.481 33.0246 161.555 32.9244 162.614 33.0466C162.724 33.0489 162.832 33.074 162.931 33.1202C163.03 33.1665 163.119 33.2329 163.191 33.3153C163.264 33.3977 163.318 33.4942 163.351 33.5987C163.384 33.7032 163.395 33.8135 163.383 33.9224Z" fill="#4B4E4C"/>
<path d="M169.983 39.6266H166.224C166.008 39.6266 165.802 39.5411 165.65 39.3888C165.498 39.2366 165.412 39.0301 165.412 38.8148V34.927C165.412 34.7117 165.498 34.5052 165.65 34.353C165.802 34.2008 166.008 34.1152 166.224 34.1152H182.092C182.307 34.1152 182.514 34.2008 182.666 34.353C182.818 34.5052 182.904 34.7117 182.904 34.927V38.7721C182.904 38.9874 182.818 39.1939 182.666 39.3461C182.514 39.4983 182.307 39.5839 182.092 39.5839H170.004L169.983 39.6266Z" fill="#4B4E4C"/>
<path d="M177.137 26.1465H171.136C170.688 26.1465 170.324 26.5099 170.324 26.9582V62.6325C170.324 63.0808 170.688 63.4442 171.136 63.4442H177.137C177.585 63.4442 177.949 63.0808 177.949 62.6325V26.9582C177.949 26.5099 177.585 26.1465 177.137 26.1465Z" fill="#4B4E4C"/>
<path d="M38.9774 61.1587H35.1758V63.5726H38.9774V61.1587Z" fill="#ADB6B1"/>
<path d="M64.2209 21.3194L35.5381 11.4502V62.7186C35.5436 63.0908 35.6939 63.4462 35.957 63.7094C36.2202 63.9726 36.5755 64.1229 36.9477 64.1284H63.7084C64.0822 64.1284 64.4407 63.9799 64.7051 63.7155C64.9694 63.4511 65.1179 63.0925 65.1179 62.7186V22.6438C65.1202 22.3581 65.0356 22.0785 64.8754 21.842C64.7152 21.6055 64.487 21.4232 64.2209 21.3194ZM61.893 24.0109V60.7319H37.4816V15.5944L61.893 24.0109Z" fill="#ACB5B0"/>
<path d="M42.0098 25.1642L58.2841 29.7784H58.6899C59.0603 29.7921 59.4226 29.6676 59.7065 29.4292C59.9903 29.1908 60.1755 28.8553 60.2261 28.488C60.2766 28.1207 60.189 27.7478 59.9801 27.4415C59.7712 27.1352 59.456 26.9174 59.0956 26.8305L42.8214 22.2377C42.4391 22.13 42.0296 22.1787 41.6832 22.373C41.3367 22.5673 41.0816 22.8913 40.974 23.2737C40.8664 23.6562 40.915 24.0657 41.1093 24.4122C41.3035 24.7587 41.6275 25.0139 42.0098 25.1215V25.1642Z" fill="#ACB5B0"/>
<path d="M59.032 33.3032L42.7577 29.5649C42.3698 29.4781 41.9633 29.5471 41.6258 29.7572C41.2838 29.969 41.0385 30.3064 40.9423 30.6971C40.8664 31.0853 40.9347 31.4879 41.1346 31.8293C41.2398 31.9962 41.377 32.1407 41.5382 32.2543C41.6995 32.368 41.8817 32.4486 42.0743 32.4915L58.3485 36.2298C58.4613 36.2522 58.5775 36.2522 58.6903 36.2298C59.0295 36.2301 59.3591 36.1166 59.6262 35.9075C59.8934 35.6984 60.0827 35.4057 60.1639 35.0762C60.2413 34.6811 60.173 34.2714 59.9717 33.9227C59.7511 33.6017 59.4139 33.3794 59.032 33.3032Z" fill="#ACB5B0"/>
<path d="M42.0949 39.7326L58.4546 42.6806H58.7109C59.0631 42.6808 59.404 42.5566 59.6736 42.3299C59.9432 42.1032 60.1242 41.7886 60.1846 41.4416C60.225 41.2468 60.225 41.0459 60.1846 40.8511C60.1442 40.6564 60.0642 40.472 59.9496 40.3094C59.715 39.9932 59.3734 39.773 58.9885 39.6899L42.6289 36.7633C42.4377 36.7206 42.2396 36.7195 42.048 36.7601C41.8564 36.8006 41.6758 36.8819 41.5183 36.9983C41.1833 37.2283 40.9529 37.5816 40.8776 37.981C40.8407 38.1761 40.8431 38.3766 40.8845 38.5708C40.926 38.7651 41.0057 38.9491 41.119 39.1121C41.2323 39.2752 41.377 39.414 41.5446 39.5206C41.7121 39.6271 41.8992 39.6992 42.0949 39.7326Z" fill="#ACB5B0"/>
<path d="M42.1805 47.1029L58.5615 49.1109H58.7324C59.101 49.1133 59.4575 48.9794 59.7334 48.7349C60.0094 48.4905 60.1853 48.1527 60.2274 47.7864C60.2546 47.5907 60.2421 47.3915 60.1907 47.2006C60.1394 47.0098 60.0502 46.8313 59.9284 46.6756C59.6802 46.3616 59.3208 46.1551 58.9246 46.0988L42.5436 44.0908C42.1721 44.0894 41.813 44.2245 41.5345 44.4704C41.2559 44.7162 41.0773 45.0558 41.0325 45.4247C40.9878 45.7936 41.0799 46.166 41.2915 46.4714C41.5031 46.7769 41.8195 46.9939 42.1805 47.0815V47.1029Z" fill="#ACB5B0"/>
<path d="M36.884 0.32004C36.7063 0.186308 36.4981 0.098743 36.2782 0.0651916C36.0583 0.0316402 35.8335 0.0531573 35.624 0.127791L0.961092 12.0477C0.681302 12.1382 0.437464 12.3152 0.264738 12.5532C0.0920113 12.7913 -0.000689909 13.078 3.86591e-06 13.3721V62.6538C0.00551775 63.026 0.155801 63.3814 0.418963 63.6446C0.682125 63.9079 1.03747 64.0582 1.40959 64.0637H36.0725C36.4446 64.0582 36.7999 63.9079 37.0631 63.6446C37.3262 63.3814 37.4765 63.026 37.482 62.6538V1.4095C37.4773 1.1932 37.4204 0.981233 37.3163 0.791583C37.2122 0.601933 37.0639 0.440183 36.884 0.32004ZM34.2144 4.16517V60.774H3.3531V14.7606L34.2144 4.16517Z" fill="#0D7B3F"/>
<path d="M7.51757 22.0023C7.66635 22.023 7.81729 22.023 7.96607 22.0023L28.5118 16.1918C28.8541 16.0912 29.1551 15.8833 29.3704 15.5987C29.5857 15.3141 29.704 14.9679 29.7078 14.6111C29.7104 14.3566 29.6516 14.1053 29.5364 13.8784C29.4211 13.6515 29.2528 13.4559 29.0457 13.308C28.8453 13.1533 28.6116 13.0477 28.3632 12.9995C28.1147 12.9512 27.8584 12.9618 27.6148 13.0303L7.06907 18.8621C6.72497 18.9596 6.42204 19.1667 6.20622 19.452C5.99039 19.7373 5.87342 20.0851 5.87305 20.4428C5.87866 20.8754 6.0544 21.2883 6.3622 21.5921C6.67 21.896 7.08509 22.0664 7.51757 22.0663V22.0023Z" fill="#0D7B3F"/>
<path d="M7.51757 29.9493H7.88064L28.4264 25.2069C28.7898 25.1246 29.1146 24.9213 29.3474 24.6302C29.5802 24.3391 29.7073 23.9776 29.7078 23.6048C29.7043 23.3599 29.6462 23.1189 29.5377 22.8994C29.4292 22.6798 29.273 22.4873 29.0807 22.3358C28.8883 22.1843 28.6645 22.0777 28.4257 22.0238C28.1869 21.9699 27.939 21.9699 27.7002 22.024L7.15448 26.745C6.79099 26.8273 6.46623 27.0306 6.23341 27.3217C6.00059 27.6128 5.87353 27.9744 5.87305 28.3471C5.87305 28.7834 6.04632 29.2017 6.35472 29.5102C6.66313 29.8187 7.08142 29.992 7.51757 29.992V29.9493Z" fill="#0D7B3F"/>
<path d="M7.51757 37.8743H7.79521L28.3623 34.2642C28.7393 34.1903 29.0793 33.9883 29.3245 33.6924C29.5697 33.3965 29.7051 33.025 29.7078 32.6407C29.7087 32.4016 29.6569 32.1653 29.5559 31.9485C29.455 31.7318 29.3074 31.5401 29.1238 31.387C28.9401 31.234 28.725 31.1234 28.4937 31.0631C28.2623 31.0029 28.0206 30.9945 27.7856 31.0385L7.23991 34.6487C6.85893 34.7182 6.51406 34.9183 6.2646 35.2146C6.01514 35.5109 5.87669 35.8848 5.87305 36.2722C5.87281 36.5135 5.92635 36.7518 6.0298 36.9699C6.13324 37.1879 6.28398 37.3801 6.47105 37.5325C6.77263 37.7588 7.14058 37.879 7.51757 37.8743Z" fill="#0D7B3F"/>
<path d="M7.51757 45.7996H7.70977L28.2769 43.2789C28.6714 43.2272 29.0338 43.0342 29.2969 42.7357C29.56 42.4372 29.706 42.0533 29.7078 41.6554C29.7048 41.4219 29.6539 41.1915 29.5584 40.9784C29.4629 40.7653 29.3248 40.574 29.1525 40.4164C28.9771 40.2672 28.7726 40.156 28.5521 40.0898C28.3315 40.0236 28.0996 40.0039 27.8711 40.0319L7.32534 42.5526C6.92696 42.5994 6.55945 42.7904 6.29197 43.0894C6.0245 43.3884 5.87551 43.7749 5.87305 44.1761C5.87606 44.4096 5.92689 44.64 6.0224 44.8531C6.11791 45.0662 6.25606 45.2574 6.42834 45.415C6.73395 45.669 7.12026 45.8054 7.51757 45.7996Z" fill="#0D7B3F"/>
</g>
<defs>
<clipPath id="clip0_1464_1355">
<rect width="214" height="64" fill="white"/>
</clipPath>
</defs>
</svg>
