<svg width="17" height="24" viewBox="0 0 17 24" fill="none" xmlns="http://www.w3.org/2000/svg">
<g clip-path="url(#clip0_1258_7077)">
<path d="M8.67999 5.35461C9.75142 5.35461 10.62 4.48604 10.62 3.41461C10.62 2.34318 9.75142 1.47461 8.67999 1.47461C7.60856 1.47461 6.73999 2.34318 6.73999 3.41461C6.73999 4.48604 7.60856 5.35461 8.67999 5.35461Z" stroke="#333333" stroke-width="2" stroke-miterlimit="10"/>
<path d="M11.51 20.2441C11.23 21.5441 10.07 22.5241 8.67999 22.5241C7.28999 22.5241 6.14999 21.5641 5.85999 20.2741" stroke="#333333" stroke-width="2" stroke-miterlimit="10" stroke-linecap="round"/>
<path d="M15 17.2746H2.35999C1.61999 17.2746 1.12999 16.4946 1.46999 15.8246L2.11999 14.5346C2.52999 13.7046 2.74999 12.7946 2.74999 11.8746V11.4546C2.74999 8.17465 5.40999 5.51465 8.68999 5.51465C11.97 5.51465 14.63 8.17465 14.63 11.4546V11.8446C14.63 12.7546 14.84 13.6546 15.24 14.4746L15.91 15.8346C16.24 16.4946 15.75 17.2746 15.01 17.2746H15Z" stroke="#333333" stroke-width="2" stroke-miterlimit="10"/>
</g>
<defs>
<clipPath id="clip0_1258_7077">
<rect width="16.64" height="23.05" fill="white" transform="translate(0.359985 0.474609)"/>
</clipPath>
</defs>
</svg>
