<svg width="80" height="80" viewBox="0 0 80 80" fill="none" xmlns="http://www.w3.org/2000/svg">
<g clip-path="url(#clip0_1597_2625)">
<path d="M48.1053 55.43H60.4853C65.0186 55.1504 69.2716 53.1417 72.3673 49.8183C75.463 46.4948 77.1653 42.1101 77.1229 37.5684C77.0806 33.0267 75.297 28.6745 72.1399 25.4093C68.9828 22.1442 64.693 20.2151 60.1553 20.02C59.8653 20.02 59.5753 20.02 59.2953 20.02C59.0641 20.0257 58.8382 19.951 58.6558 19.8088C58.4735 19.6666 58.3461 19.4656 58.2953 19.24C57.4597 15.1296 55.1962 11.4476 51.9058 8.84618C48.6154 6.2448 44.5105 4.89197 40.3182 5.02732C36.1259 5.16267 32.1168 6.77747 29.001 9.58568C25.8853 12.3939 23.864 16.2142 23.2953 20.37C23.0791 21.8813 23.0623 23.4144 23.2453 24.93C23.2606 25.0813 23.2412 25.2341 23.1885 25.3768C23.1359 25.5195 23.0514 25.6483 22.9414 25.7534C22.8315 25.8585 22.6991 25.9371 22.5542 25.9833C22.4093 26.0295 22.2558 26.0421 22.1053 26.02C21.3555 25.8756 20.5851 25.8756 19.8353 26.02C18.8021 26.2378 17.8436 26.7213 17.0544 27.4227C16.2652 28.1242 15.6727 29.0195 15.3353 30.02C15.0605 30.7919 14.9514 31.6131 15.0153 32.43C15.0156 32.5674 14.9876 32.7034 14.9331 32.8296C14.8785 32.9557 14.7985 33.0692 14.6981 33.1631C14.5977 33.2569 14.479 33.329 14.3495 33.375C14.22 33.4209 14.0824 33.4396 13.9453 33.43C12.8313 33.3433 11.7106 33.4344 10.6253 33.7C8.18981 34.3026 6.02718 35.7054 4.48409 37.6837C2.941 39.662 2.10683 42.1011 2.1153 44.61C2.15763 47.3368 3.21139 49.9507 5.07212 51.9445C6.93285 53.9383 9.46787 55.1698 12.1853 55.4H31.9153" stroke="#AFAFAF" stroke-width="4" stroke-miterlimit="10" stroke-linecap="round"/>
<path d="M39.9951 36.8896V74.9096" stroke="#007AFF" stroke-width="4" stroke-miterlimit="10" stroke-linecap="round"/>
<path d="M48.8254 43.7097L40.0254 34.9097" stroke="#007AFF" stroke-width="4" stroke-miterlimit="10" stroke-linecap="round"/>
<path d="M31.165 43.79L39.975 34.98" stroke="#007AFF" stroke-width="4" stroke-miterlimit="10" stroke-linecap="round"/>
</g>
<defs>
<clipPath id="clip0_1597_2625">
<rect width="79.77" height="73.82" fill="white" transform="translate(0.115234 3.08984)"/>
</clipPath>
</defs>
</svg>
