<svg width="48" height="43" viewBox="0 0 48 43" fill="none" xmlns="http://www.w3.org/2000/svg">
<g clip-path="url(#clip0_1679_5009)">
<path d="M30.0063 0H14.0063C13.4742 0 12.9639 0.212262 12.5876 0.590089C12.2114 0.967918 12 1.48036 12 2.01469V10.5423L30.0063 21.0846L39.0032 24.8859L48 21.0846V10.5423L30.0063 0Z" fill="#009F5D"/>
<path d="M12 10.5425H30.0063V21.0848H12V10.5425Z" fill="#007C3A"/>
<path d="M46.0063 0H30.0063V10.5423H47.9496V2.01469C47.9498 1.49116 47.7471 0.988088 47.3844 0.612029C47.0217 0.235971 46.5274 0.0164632 46.0063 0V0Z" fill="#42B475"/>
<path d="M30.0063 21.0845H12V40.167C12 40.7014 12.2114 41.2138 12.5876 41.5916C12.9639 41.9695 13.4742 42.1817 14.0063 42.1817H46.0063C46.5274 42.1653 47.0217 41.9457 47.3844 41.5697C47.7471 41.1936 47.9498 40.6906 47.9495 40.167V31.6774L30.0063 21.0845Z" fill="#005E35"/>
<path d="M30.0063 21.0845H47.9496V31.6774H30.0063V21.0845Z" fill="#007C3A"/>
<path opacity="0.1" d="M24.9968 7.52637H12V36.1502H24.9968C25.5161 36.1506 26.0153 35.9488 26.3894 35.5872C26.7636 35.2257 26.9836 34.7326 27.0032 34.2115V9.54106C27.0032 9.00673 26.7918 8.49428 26.4155 8.11646C26.0393 7.73863 25.529 7.52637 24.9968 7.52637Z" fill="#050000"/>
<path opacity="0.2" d="M23.5079 9.03467H12V37.6585H23.5079C23.7697 37.6585 24.029 37.6067 24.2708 37.5061C24.5127 37.4055 24.7325 37.258 24.9176 37.0721C25.1028 36.8862 25.2496 36.6655 25.3498 36.4226C25.45 36.1797 25.5016 35.9194 25.5016 35.6565V11.0494C25.5016 10.5172 25.2919 10.0067 24.9184 9.62922C24.5449 9.25175 24.0378 9.03801 23.5079 9.03467Z" fill="#050000"/>
<path opacity="0.2" d="M23.5079 9.03467H12V34.6428H23.5079C23.7697 34.6428 24.029 34.591 24.2708 34.4904C24.5127 34.3898 24.7325 34.2423 24.9176 34.0564C25.1028 33.8705 25.2496 33.6498 25.3498 33.4069C25.45 33.164 25.5016 32.9037 25.5016 32.6408V11.1C25.5083 10.8323 25.4618 10.5659 25.3648 10.3164C25.2677 10.0669 25.1221 9.83939 24.9365 9.64708C24.7509 9.45477 24.5289 9.30156 24.2836 9.19641C24.0383 9.09125 23.7746 9.03627 23.5079 9.03467Z" fill="#050000"/>
<path opacity="0.2" d="M22.0063 9.03467H12V34.6428H22.0063C22.5307 34.6361 23.0313 34.4223 23.3998 34.0475C23.7682 33.6728 23.9748 33.1674 23.9748 32.6408V11.1C23.9815 10.8344 23.9358 10.5701 23.8403 10.3222C23.7449 10.0744 23.6015 9.84798 23.4186 9.65601C23.2356 9.46404 23.0166 9.31031 22.7742 9.20367C22.5319 9.09703 22.2709 9.0396 22.0063 9.03467Z" fill="#050000"/>
<path d="M2.00631 9.03467H22.0063C22.5318 9.04463 23.0325 9.26128 23.4006 9.63803C23.7687 10.0148 23.9749 10.5216 23.9748 11.0494V31.1329C23.9748 31.6639 23.7647 32.1731 23.3908 32.5486C23.0169 32.924 22.5098 33.1349 21.9811 33.1349H2.00631C1.74343 33.1366 1.48283 33.0861 1.23948 32.9862C0.996137 32.8863 0.774863 32.7391 0.588393 32.5531C0.401923 32.367 0.253939 32.1457 0.152959 31.902C0.0519782 31.6583 -5.26484e-06 31.3969 3.99935e-10 31.1329H3.99935e-10V11.0494C3.99935e-10 10.515 0.211378 10.0026 0.587634 9.62476C0.96389 9.24693 1.4742 9.03467 2.00631 9.03467Z" fill="#007C3A"/>
<path d="M5.2998 28.6239L10.1579 21.0213L5.70359 13.5581H9.28719L11.7099 18.3604C11.937 18.8166 12.0884 19.1587 12.1768 19.3741C12.3408 19.0066 12.5049 18.6645 12.6815 18.3224L15.2809 13.5581H18.5616L13.9938 21.0213L18.6752 28.6239H15.2052L12.4039 23.3528C12.2727 23.1253 12.1588 22.888 12.0632 22.6432C11.9796 22.8829 11.8695 23.1124 11.7351 23.3275L8.83293 28.6239H5.2998Z" fill="white"/>
</g>
<defs>
<clipPath id="clip0_1679_5009">
<rect width="48" height="42.1818" fill="white"/>
</clipPath>
</defs>
</svg>
