<svg width="36" height="37" viewBox="0 0 36 37" fill="none" xmlns="http://www.w3.org/2000/svg">
<rect y="0.181641" width="36" height="36" rx="18" fill="white"/>
<g clip-path="url(#clip0_557_12135)">
<path d="M21.0032 7.71533H13.0032C12.7371 7.71533 12.4819 7.82066 12.2938 8.00816C12.1057 8.19565 12 8.44995 12 8.7151V12.9468L21.0032 18.1784L25.5016 20.0647L30 18.1784V12.9468L21.0032 7.71533Z" fill="#009F5D"/>
<path d="M12 12.9468H21.0032V18.1783H12V12.9468Z" fill="#007C3A"/>
<path d="M29.0029 7.71533H21.0029V12.9468H29.9745V8.7151C29.9747 8.45531 29.8733 8.20566 29.692 8.01905C29.5106 7.83243 29.2635 7.7235 29.0029 7.71533V7.71533Z" fill="#42B475"/>
<path d="M21.0032 18.1782H12V27.6478C12 27.9129 12.1057 28.1672 12.2938 28.3547C12.4819 28.5422 12.7371 28.6475 13.0032 28.6475H29.0032C29.2637 28.6394 29.5108 28.5304 29.6922 28.3438C29.8735 28.1572 29.9749 27.9076 29.9748 27.6478V23.4349L21.0032 18.1782Z" fill="#005E35"/>
<path d="M21.0029 18.1782H29.9745V23.4349H21.0029V18.1782Z" fill="#007C3A"/>
<path opacity="0.1" d="M18.4984 11.4502H12V25.6545H18.4984C18.758 25.6547 19.0076 25.5545 19.1947 25.3751C19.3818 25.1957 19.4918 24.951 19.5016 24.6925V12.45C19.5016 12.1848 19.3959 11.9305 19.2078 11.743C19.0196 11.5555 18.7645 11.4502 18.4984 11.4502Z" fill="#050000"/>
<path opacity="0.2" d="M17.7539 12.1987H12V26.403H17.7539C17.8849 26.403 18.0145 26.3773 18.1354 26.3274C18.2564 26.2775 18.3663 26.2043 18.4588 26.1121C18.5514 26.0198 18.6248 25.9103 18.6749 25.7897C18.725 25.6692 18.7508 25.54 18.7508 25.4096V13.1985C18.7508 12.9344 18.646 12.6811 18.4592 12.4938C18.2724 12.3065 18.0189 12.2004 17.7539 12.1987Z" fill="#050000"/>
<path opacity="0.2" d="M17.7539 12.1987H12V24.9065H17.7539C17.8849 24.9065 18.0145 24.8808 18.1354 24.8309C18.2564 24.781 18.3663 24.7078 18.4588 24.6155C18.5514 24.5233 18.6248 24.4138 18.6749 24.2932C18.725 24.1727 18.7508 24.0435 18.7508 23.913V13.2237C18.7541 13.0908 18.7309 12.9586 18.6824 12.8348C18.6339 12.711 18.5611 12.5981 18.4683 12.5026C18.3754 12.4072 18.2645 12.3312 18.1418 12.279C18.0192 12.2268 17.8873 12.1995 17.7539 12.1987Z" fill="#050000"/>
<path opacity="0.2" d="M17.0032 12.1987H12V24.9065H17.0032C17.2653 24.9032 17.5157 24.7971 17.6999 24.6111C17.8841 24.4252 17.9874 24.1744 17.9874 23.913V13.2237C17.9907 13.0918 17.9679 12.9607 17.9202 12.8377C17.8724 12.7147 17.8008 12.6023 17.7093 12.5071C17.6178 12.4118 17.5083 12.3355 17.3871 12.2826C17.2659 12.2297 17.1354 12.2012 17.0032 12.1987Z" fill="#050000"/>
<path d="M7.00315 12.1987H17.0032C17.2659 12.2037 17.5162 12.3112 17.7003 12.4981C17.8843 12.6851 17.9874 12.9366 17.9874 13.1985V23.1648C17.9874 23.4283 17.8824 23.681 17.6954 23.8673C17.5085 24.0536 17.2549 24.1583 16.9905 24.1583H7.00315C6.87172 24.1591 6.74141 24.134 6.61974 24.0845C6.49807 24.0349 6.38743 23.9619 6.2942 23.8695C6.20096 23.7772 6.12697 23.6674 6.07648 23.5464C6.02599 23.4255 6 23.2958 6 23.1648V23.1648V13.1985C6 12.9333 6.10569 12.6791 6.29382 12.4916C6.48195 12.3041 6.7371 12.1987 7.00315 12.1987Z" fill="#007C3A"/>
<path d="M8.6499 21.9196L11.0789 18.1469L8.8518 14.4434H10.6436L11.855 16.8265C11.9685 17.0528 12.0442 17.2226 12.0884 17.3295C12.1704 17.1471 12.2524 16.9774 12.3408 16.8076L13.6404 14.4434H15.2808L12.9969 18.1469L15.3376 21.9196H13.6026L12.202 19.3039C12.1363 19.191 12.0794 19.0733 12.0316 18.9518C11.9898 19.0707 11.9348 19.1846 11.8676 19.2913L10.4165 21.9196H8.6499Z" fill="white"/>
</g>
<defs>
<clipPath id="clip0_557_12135">
<rect width="24" height="20.9323" fill="white" transform="translate(6 7.71533)"/>
</clipPath>
</defs>
</svg>
