<svg width="98" height="86" viewBox="0 0 98 86" fill="none" xmlns="http://www.w3.org/2000/svg">
<g clip-path="url(#clip0_1723_5032)">
<path d="M50.5105 16.2256H23.8438C22.957 16.2256 22.1065 16.5767 21.4794 17.2017C20.8523 17.8267 20.5 18.6743 20.5 19.5582V33.664L50.5105 51.1023L65.5053 57.3902L80.5 51.1023V33.664L50.5105 16.2256Z" fill="#009F5D"/>
<path d="M20.5 33.6641H50.5105V51.1024H20.5V33.6641Z" fill="#007C3A"/>
<path d="M77.1774 16.2256H50.5107V33.664H80.4161V19.5582C80.4165 18.6922 80.0787 17.86 79.4742 17.238C78.8696 16.6159 78.0459 16.2528 77.1774 16.2256V16.2256Z" fill="#42B475"/>
<path d="M50.5105 51.1025H20.5V82.6677C20.5 83.5515 20.8523 84.3992 21.4794 85.0241C22.1065 85.6491 22.957 86.0002 23.8438 86.0002H77.1772C78.0457 85.973 78.8694 85.6099 79.4739 84.9879C80.0785 84.3658 80.4163 83.5337 80.4159 82.6677V68.6247L50.5105 51.1025Z" fill="#005E35"/>
<path d="M50.5107 51.1025H80.4161V68.6248H50.5107V51.1025Z" fill="#007C3A"/>
<path opacity="0.1" d="M42.1614 28.6758H20.5V76.0235H42.1614C43.0268 76.0241 43.8588 75.6903 44.4823 75.0923C45.1059 74.4942 45.4726 73.6785 45.5053 72.8167V32.0084C45.5053 31.1245 45.153 30.2768 44.5259 29.6519C43.8988 29.0269 43.0483 28.6758 42.1614 28.6758Z" fill="#050000"/>
<path opacity="0.2" d="M39.6798 31.1699H20.5V78.5176H39.6798C40.1162 78.5176 40.5483 78.432 40.9514 78.2655C41.3545 78.0991 41.7208 77.8552 42.0294 77.5477C42.3379 77.2402 42.5827 76.8751 42.7497 76.4733C42.9167 76.0715 43.0026 75.6409 43.0026 75.206V34.5025C43.0026 33.6223 42.6532 32.7778 42.0307 32.1534C41.4081 31.529 40.563 31.1755 39.6798 31.1699Z" fill="#050000"/>
<path opacity="0.2" d="M39.6798 31.1699H20.5V73.5292H39.6798C40.1162 73.5292 40.5483 73.4436 40.9514 73.2771C41.3545 73.1107 41.7208 72.8668 42.0294 72.5593C42.3379 72.2518 42.5827 71.8867 42.7497 71.4849C42.9167 71.0831 43.0026 70.6525 43.0026 70.2176V34.5863C43.0138 34.1434 42.9363 33.7028 42.7746 33.2901C42.6129 32.8774 42.3702 32.501 42.0608 32.1829C41.7514 31.8648 41.3815 31.6114 40.9727 31.4375C40.5639 31.2635 40.1243 31.1726 39.6798 31.1699Z" fill="#050000"/>
<path opacity="0.2" d="M37.1772 31.1699H20.5V73.5292H37.1772C38.0511 73.5182 38.8855 73.1644 39.4996 72.5446C40.1137 71.9247 40.458 71.0887 40.4579 70.2176V34.5863C40.4691 34.1469 40.393 33.7097 40.2339 33.2997C40.0748 32.8898 39.8359 32.5152 39.5309 32.1977C39.226 31.8802 38.861 31.6259 38.4571 31.4495C38.0531 31.2731 37.6181 31.1781 37.1772 31.1699Z" fill="#050000"/>
<path d="M3.84385 31.1699H37.1772C38.053 31.1864 38.8874 31.5448 39.501 32.168C40.1145 32.7912 40.4581 33.6294 40.4579 34.5025V67.7234C40.4579 68.6017 40.1079 69.444 39.4847 70.0651C38.8616 70.6861 38.0164 71.035 37.1351 71.035H3.84385C3.40572 71.0378 2.97138 70.9542 2.5658 70.789C2.16023 70.6238 1.79144 70.3803 1.48065 70.0725C1.16987 69.7648 0.923232 69.3988 0.754931 68.9956C0.58663 68.5924 0.499991 68.1601 0.5 67.7234H0.5V34.5025C0.5 33.6186 0.852297 32.771 1.47939 32.146C2.10648 31.521 2.957 31.1699 3.84385 31.1699Z" fill="#007C3A"/>
<path d="M9.33301 63.5733L17.4297 50.9975L10.006 38.6523H15.9786L20.0165 46.596C20.395 47.3506 20.6474 47.9165 20.7946 48.2728C21.068 47.665 21.3414 47.0991 21.6358 46.5331L25.9681 38.6523H31.4361L23.823 50.9975L31.6253 63.5733H25.8419L21.1732 54.8541C20.9544 54.4777 20.7646 54.0853 20.6054 53.6804C20.466 54.0768 20.2826 54.4564 20.0586 54.8122L15.2215 63.5733H9.33301Z" fill="white"/>
</g>
<circle cx="79.5" cy="18" r="17" fill="white" stroke="#339967" stroke-width="2"/>
<line x1="71.3284" y1="17.4854" x2="76.9853" y2="23.1422" stroke="#339967" stroke-width="4" stroke-linecap="round"/>
<line x1="88.9561" y1="11.8284" x2="77.6423" y2="23.1421" stroke="#339967" stroke-width="4" stroke-linecap="round"/>
<defs>
<clipPath id="clip0_1723_5032">
<rect width="80" height="69.7744" fill="white" transform="translate(0.5 16.2256)"/>
</clipPath>
</defs>
</svg>
